<svg id="Capa_1" enable-background="new 0 0 512 512" height="512" viewBox="0 0 512 512" width="512" xmlns="http://www.w3.org/2000/svg"><g id="XMLID_1993_"><path id="XMLID_1167_" d="m391.331 93.945c8.912-12.283 7.836-29.561-3.236-40.633-11.001-11.001-28.127-12.13-40.394-3.403-4.587-15.831-19.183-27.41-36.493-27.41-11.881 0-22.485 5.455-29.453 13.995-5.262-15.408-19.851-26.494-37.041-26.494-9.747 0-18.651 3.576-25.502 9.471-4.042-1.747-8.497-2.721-13.18-2.721-7.012 0-13.514 2.176-18.877 5.883-12.213-9.247-29.68-8.309-40.819 2.829-6.534 6.534-9.555 15.247-9.074 23.8-12.19-8.023-28.737-6.673-39.46 4.05-10.382 10.382-11.976 26.221-4.788 38.282-15.685 3.762-27.347 17.868-27.347 34.707 0 19.716 15.983 35.699 35.699 35.699h280.115l.02-.236c17.667-2.007 31.396-16.997 31.396-35.201 0-14.649-8.889-27.22-21.566-32.618z" fill="#fff2a0"/><path id="XMLID_1015_" d="m59.282 162h360v56h-360z" fill="#ffbecb"/><path id="XMLID_1001_" d="m347.825 502h-217.086l-43.457-284h304z" fill="#ff9eb1"/><g id="XMLID_992_" fill="#fff"><path id="XMLID_1761_" d="m146.571 218 26.506 284h41.926l-9.721-284z"/><path id="XMLID_1762_" d="m273.282 218-9.721 284h41.925l26.506-284z"/></g><path id="XMLID_1089_" d="m437.226 446.846c.387-8.437-2.639-17.002-9.082-23.445-12.155-12.155-31.862-12.155-44.017 0-5.913 5.912-8.94 13.612-9.101 21.36-11.845 3.761-20.428 14.843-20.428 27.933 0 16.185 13.121 29.306 29.306 29.306 7.612 0 14.544-2.903 19.754-7.661 5.21 4.758 12.143 7.661 19.755 7.661 16.185 0 29.306-13.12 29.306-29.306-.001-11.189-6.274-20.91-15.493-25.848z" fill="#fff2a0"/><path id="XMLID_211_" d="m447.048 441.287c-.951-9.368-5.105-18.229-11.833-24.956-7.767-7.768-18.095-12.046-29.079-12.046-10.985 0-21.313 4.278-29.08 12.045-3.125 3.125-5.671 6.687-7.618 10.536l30.43-198.866h19.414c5.522 0 10-4.477 10-10v-56c0-5.523-4.478-10-10-10h-4.169c4.923-7.286 7.784-16.052 7.784-25.438 0-14.563-6.908-27.956-18.233-36.408 5.689-14.919 2.321-32.096-9.497-43.914-11.423-11.422-27.946-14.944-42.544-9.976-8.482-14.406-24.199-23.764-41.415-23.764-9.593 0-18.781 2.828-26.557 8.003-9.064-12.641-23.814-20.503-39.936-20.503-9.74 0-19.228 2.906-27.268 8.276-3.7-1.014-7.521-1.526-11.415-1.526-6.525 0-12.871 1.449-18.666 4.229-15.64-8.116-35.295-5.395-48.102 7.411-4.726 4.726-8.178 10.49-10.147 16.744-13.524-3.01-28.16.88-38.387 11.106-10.594 10.596-14.443 25.757-10.821 39.687-14.688 7.762-24.242 23.09-24.242 40.374 0 9.522 2.931 18.371 7.934 25.699h-4.318c-5.522 0-10 4.477-10 10v56c0 5.523 4.478 10 10 10h19.414l42.157 275.513c.747 4.882 4.946 8.487 9.885 8.487h217.087c4.938 0 9.138-3.605 9.885-8.487l.208-1.364c6.933 6.124 16.03 9.851 25.985 9.851 7.008 0 13.802-1.854 19.755-5.32 5.952 3.465 12.746 5.32 19.754 5.32 21.673 0 39.306-17.632 39.306-39.306-.001-12.48-5.882-24.047-15.671-31.407zm-371.381-314.986c0-11.931 8.092-22.204 19.679-24.983 3.092-.742 5.647-2.91 6.883-5.839 1.235-2.93 1.003-6.273-.625-9.005-5.018-8.419-3.674-19.147 3.27-26.09 4.127-4.127 9.639-6.26 15.183-6.26 4.063 0 8.145 1.146 11.71 3.492 3.156 2.077 7.213 2.198 10.487.313 3.274-1.886 5.206-5.456 4.994-9.228-.339-6.021 1.906-11.913 6.16-16.167 7.433-7.433 19.345-8.262 27.711-1.928 3.439 2.605 8.168 2.71 11.721.254 3.891-2.688 8.453-4.109 13.193-4.109 3.196 0 6.296.639 9.211 1.899 3.516 1.52 7.59.899 10.49-1.598 5.286-4.548 12.026-7.052 18.981-7.052 12.465 0 23.548 7.927 27.576 19.726 1.175 3.438 4.121 5.969 7.696 6.611 3.58.64 7.219-.706 9.516-3.521 5.35-6.557 13.261-10.317 21.705-10.317 12.387 0 23.443 8.303 26.888 20.192.902 3.112 3.256 5.595 6.316 6.661 3.06 1.067 6.447.583 9.086-1.295 8.53-6.069 20.107-5.093 27.525 2.326 7.49 7.489 8.421 19.134 2.214 27.689-1.788 2.464-2.356 5.609-1.543 8.542.813 2.934 2.918 5.338 5.719 6.531 9.406 4.005 15.483 13.197 15.483 23.417 0 12.944-9.684 23.806-22.524 25.265-.351.04-.695.098-1.034.172h-277.972c-14.171.001-25.699-11.528-25.699-25.698zm-6.385 45.699h340v36h-340zm70.042 320-40.395-264h280.707l-40.396 264zm284.088 0c-4.827 0-9.448-1.792-13.011-5.045-1.909-1.744-4.326-2.616-6.743-2.616s-4.834.872-6.743 2.616c-3.563 3.253-8.184 5.045-13.012 5.045-10.646 0-19.306-8.661-19.306-19.306 0-8.451 5.407-15.846 13.455-18.401 4.08-1.295 6.883-5.044 6.972-9.325.113-5.479 2.306-10.627 6.174-14.495 3.99-3.99 9.295-6.188 14.938-6.188s10.947 2.198 14.937 6.188c4.189 4.189 6.437 9.989 6.164 15.914-.177 3.848 1.872 7.456 5.269 9.274 6.3 3.374 10.213 9.9 10.213 17.033-.001 10.645-8.661 19.306-19.307 19.306z" fill="#ff5d7d"/></g></svg>