<svg id="Layer_1" height="512" viewBox="0 0 512 512" width="512" xmlns="http://www.w3.org/2000/svg" data-name="Layer 1"><path d="m315.45 145.69h-224.02a29.115 29.115 0 0 0 -29.12 29.11v124.05a29.121 29.121 0 0 0 29.12 29.11h227.16a29.121 29.121 0 0 0 29.12-29.11v-120.91a32.26 32.26 0 0 0 -32.26-32.25z" fill="#56768b"/><path d="m102.31 298.85v-124.05a29.115 29.115 0 0 1 29.12-29.11h-40a29.115 29.115 0 0 0 -29.12 29.11v124.05a29.121 29.121 0 0 0 29.12 29.11h40a29.121 29.121 0 0 1 -29.12-29.11z" fill="#35597c"/><path d="m264.66 192.68a9.15 9.15 0 1 1 -9.14 9.15 9.154 9.154 0 0 1 9.14-9.15z" fill="#ed6e73"/><path d="m298.58 192.68a9.15 9.15 0 1 1 -9.15 9.15 9.146 9.146 0 0 1 9.15-9.15z" fill="#aaff5f"/><path d="m434.26 143.25a25.331 25.331 0 0 0 -25.33 25.34v137.22a25.329 25.329 0 0 0 25.33 25.33h15.43v-187.89z" fill="#56768b"/><path d="m189.46 191.59v90.46h-61.04a11.638 11.638 0 0 1 -11.64-11.64v-67.17a11.647 11.647 0 0 1 11.64-11.65z" fill="#f5af6a"/><path d="m218.28 203.24v67.17a11.647 11.647 0 0 1 -11.65 11.64h-17.17v-90.46h17.17a11.655 11.655 0 0 1 11.65 11.65z" fill="#c5faff"/><path d="m173.78 99.37a35.345 35.345 0 1 1 -33.75-24.83 35.418 35.418 0 0 1 33.75 24.83z" fill="#ed6e73"/><path d="m124.69 109.88a35.346 35.346 0 0 1 25.357-33.9 35.345 35.345 0 1 0 -.017 67.8 35.346 35.346 0 0 1 -25.34-33.9z" fill="#eb565b"/><path d="m235.86 15.32a64.765 64.765 0 1 1 -64.71 64.72 64.725 64.725 0 0 1 64.71-64.72zm30.33 64.72a30.325 30.325 0 1 0 -30.33 30.32 30.331 30.331 0 0 0 30.33-30.32z" fill="#68ddf8"/><path d="m237.65 328.03 74.04 168.65h-32.16l-60.74-143.01h-26.51l-61.69 143.01h-32.18l75.01-168.65v-.07h64.23z" fill="#ed6e73"/><path d="m408.93 172.37v127.72l-61.22-34.41v-57.94z" fill="#35597c"/><g fill="#284268"><path d="m264.662 186.685a15.147 15.147 0 1 0 15.147 15.146 15.163 15.163 0 0 0 -15.147-15.146zm0 18.293a3.147 3.147 0 1 1 3.147-3.147 3.15 3.15 0 0 1 -3.147 3.147z"/><path d="m298.578 186.685a15.147 15.147 0 1 0 15.147 15.146 15.163 15.163 0 0 0 -15.147-15.146zm0 18.293a3.147 3.147 0 1 1 3.147-3.147 3.15 3.15 0 0 1 -3.147 3.147z"/><path d="m88 199.748a6 6 0 0 0 -6 6v56.614a6 6 0 0 0 12 0v-56.614a6 6 0 0 0 -6-6z"/><path d="m88 171.748a6 6 0 0 0 -6 6v5.614a6 6 0 0 0 12 0v-5.614a6 6 0 0 0 -6-6z"/><path d="m206.762 186h-34.762a6 6 0 0 0 0 12h11v78h-54.579a5.421 5.421 0 0 1 -5.421-5.421v-67.341a5.238 5.238 0 0 1 5.238-5.238h3.762a6 6 0 0 0 0-12h-3.579a17.421 17.421 0 0 0 -17.421 17.421v66.986a17.593 17.593 0 0 0 17.593 17.593h78.038a17.369 17.369 0 0 0 17.369-17.369v-67.393a17.238 17.238 0 0 0 -17.238-17.238zm5.238 84.407a5.593 5.593 0 0 1 -5.593 5.593h-11.407v-78h11.631a5.369 5.369 0 0 1 5.369 5.369z"/><path d="m449.688 137h-15.424a31.526 31.526 0 0 0 -31.264 31.587v.317l-49 28.3v-19.261c0-21.095-17.456-37.943-38.552-37.943h-42.168a70.7 70.7 0 1 0 -108.058-62.867 41.312 41.312 0 0 0 -53.467 62.867h-20.329c-19.363 0-35.426 15.438-35.426 34.8v124.045c0 19.362 16.063 35.155 35.426 35.155h72.79l-71.292 160.26a6.3 6.3 0 0 0 .451 5.858 6.147 6.147 0 0 0 5.031 2.882h32.187a6 6 0 0 0 5.509-3.619l60.128-139.381h18.586l59.2 139.35a6 6 0 0 0 5.522 3.65h32.161a6.208 6.208 0 0 0 5.494-8.634l-70.386-160.366h71.785a35.441 35.441 0 0 0 35.408-35.155v-22.779l49 27.534v2.211a31.186 31.186 0 0 0 31.264 31.189h15.424a6.154 6.154 0 0 0 6.312-5.856v-187.892a6.493 6.493 0 0 0 -6.312-6.252zm-213.826-115.678a58.715 58.715 0 1 1 -58.714 58.715 58.782 58.782 0 0 1 58.714-58.715zm-37.438 118.678h-30.114a41.437 41.437 0 0 0 11.072-17.468 71.314 71.314 0 0 0 19.042 17.468zm-87.737-30.121a29.342 29.342 0 1 1 29.341 29.342 29.375 29.375 0 0 1 -29.341-29.342zm191.82 381.121h-19l-59.198-139.35a6 6 0 0 0 -5.523-3.65h-26.5a6 6 0 0 0 -5.509 3.619l-60.131 139.381h-19l69.709-157h56.345zm39.493-192.155a23.429 23.429 0 0 1 -23.408 23.155h-227.166a23.444 23.444 0 0 1 -23.426-23.155v-124.045c0-12.745 10.681-22.8 23.426-22.8h224.022c14.479 0 26.552 11.465 26.552 25.943zm61-9.011-49-27.523v-51.245l49-28.3zm41 35.166h-9.736a19.173 19.173 0 0 1 -19.264-19.19v-137.223a19.514 19.514 0 0 1 19.264-19.587h9.736z"/><path d="m235.862 116.364a36.328 36.328 0 1 0 -36.327-36.327 36.369 36.369 0 0 0 36.327 36.327zm0-60.655a24.328 24.328 0 1 1 -24.327 24.328 24.356 24.356 0 0 1 24.327-24.328z"/></g></svg>